<?xml version="1.0" standalone="no"?>
<svg xmlns:xlink="http://www.w3.org/1999/xlink" id="wave" style="transform:rotate(0deg); transition: 0.3s" viewBox="0 0 1440 180" version="1.1" xmlns="http://www.w3.org/2000/svg"><defs><linearGradient id="sw-gradient-0" x1="0" x2="0" y1="1" y2="0"><stop stop-color="rgba(43.579, 13.492, 3.829, 1)" offset="0%"/><stop stop-color="rgba(0, 0, 0, 1)" offset="100%"/></linearGradient></defs><path style="transform:translate(0, 0px); opacity:1" fill="url(#sw-gradient-0)" d="M0,0L288,72L576,18L864,108L1152,126L1440,0L1728,36L2016,144L2304,162L2592,144L2880,72L3168,126L3456,0L3744,108L4032,162L4320,72L4608,0L4896,0L5184,162L5472,36L5760,0L6048,144L6336,126L6624,72L6912,0L6912,180L6624,180L6336,180L6048,180L5760,180L5472,180L5184,180L4896,180L4608,180L4320,180L4032,180L3744,180L3456,180L3168,180L2880,180L2592,180L2304,180L2016,180L1728,180L1440,180L1152,180L864,180L576,180L288,180L0,180Z"/></svg>